<svg xmlns="http://www.w3.org/2000/svg" width="880" height="440" viewBox="0 0 880 440">
<defs>
  <pattern id="grid" width="40" height="40" patternUnits="userSpaceOnUse">
    <path d="M 40 0 L 0 0 0 40" fill="none" stroke="#1e293b" stroke-width="0.5"/>
  </pattern>
  <marker id="ah" markerWidth="8" markerHeight="8" refX="7" refY="4" orient="auto">
    <path d="M0,0 L8,4 L0,8 Z" fill="#64748b"/>
  </marker>
</defs>
<rect width="880" height="440" fill="#020617"/>
<rect width="880" height="440" fill="url(#grid)"/>
<text x="30" y="36" fill="#f1f5f9" font-size="17" font-family="monospace" font-weight="bold">3 · Point one client at the gateway</text>
  <rect x="60" y="120" width="200" height="70" rx="8" fill="#0f172a"/>
  <rect x="60" y="120" width="200" height="70" rx="8" fill="rgba(8,51,68,0.4)" stroke="#22d3ee" stroke-width="1.5"/>
  <text x="160.0" y="151.0" text-anchor="middle" fill="#e2e8f0" font-size="13" font-family="monospace" font-weight="bold">Copilot (migrated)</text>
  <text x="160.0" y="168.0" text-anchor="middle" fill="#94a3b8" font-size="9" font-family="monospace">base URL -> :8080</text>
  <rect x="60" y="250" width="200" height="70" rx="8" fill="#0f172a"/>
  <rect x="60" y="250" width="200" height="70" rx="8" fill="rgba(8,51,68,0.4)" stroke="#22d3ee" stroke-width="1.5"/>
  <text x="160.0" y="281.0" text-anchor="middle" fill="#e2e8f0" font-size="13" font-family="monospace" font-weight="bold">Billing Service</text>
  <text x="160.0" y="298.0" text-anchor="middle" fill="#94a3b8" font-size="9" font-family="monospace">still direct</text>
  <line x1="260" y1="155" x2="340" y2="155" stroke="#64748b" stroke-width="1.5" marker-end="url(#ah)"/><text x="300.0" y="149.0" text-anchor="middle" fill="#94a3b8" font-size="9" font-family="monospace">OpenAI-compatible</text>
  <line x1="260" y1="285" x2="620" y2="200" stroke="#64748b" stroke-width="1.5" marker-end="url(#ah)" stroke-dasharray="6,4"/><text x="440.0" y="236.5" text-anchor="middle" fill="#94a3b8" font-size="9" font-family="monospace">unchanged</text>
  <rect x="340" y="120" width="200" height="70" rx="8" fill="#0f172a"/>
  <rect x="340" y="120" width="200" height="70" rx="8" fill="rgba(251,146,60,0.25)" stroke="#fb923c" stroke-width="1.5"/>
  <text x="440.0" y="151.0" text-anchor="middle" fill="#e2e8f0" font-size="13" font-family="monospace" font-weight="bold">Bifrost Gateway</text>
  <text x="440.0" y="168.0" text-anchor="middle" fill="#94a3b8" font-size="9" font-family="monospace"></text>
  <line x1="540" y1="155" x2="620" y2="155" stroke="#64748b" stroke-width="1.5" marker-end="url(#ah)"/>
  <rect x="620" y="120" width="200" height="70" rx="8" fill="#0f172a"/>
  <rect x="620" y="120" width="200" height="70" rx="8" fill="rgba(6,78,59,0.4)" stroke="#34d399" stroke-width="1.5"/>
  <text x="720.0" y="151.0" text-anchor="middle" fill="#e2e8f0" font-size="13" font-family="monospace" font-weight="bold">Provider</text>
  <text x="720.0" y="168.0" text-anchor="middle" fill="#94a3b8" font-size="9" font-family="monospace"></text></svg>